HIERARCHY
ROOT Hips
{
  OFFSET 0 0 0
  CHANNELS 6 Xposition Yposition Zposition Zrotation Xrotation Yrotation
  JOINT Spine
  {
    OFFSET 0 10.1816 0.131521
    CHANNELS 3 Zrotation Xrotation Yrotation
    JOINT Spine1
    {
      OFFSET 0 10.0835 -1.0008
      CHANNELS 3 Zrotation Xrotation Yrotation
      JOINT Spine2
      {
        OFFSET 0 9.10001 -1.37342
        CHANNELS 3 Zrotation Xrotation Yrotation
        JOINT Neck
        {
          OFFSET 0 16.6717 -2.51617
          CHANNELS 3 Zrotation Xrotation Yrotation
          JOINT Head
          {
            OFFSET 0 9.61788 1.68501
            CHANNELS 3 Zrotation Xrotation Yrotation
            End Site
            {
              OFFSET 0 0 0
            }
          }
        }
        JOINT LeftShoulder
        {
          OFFSET 4.57045 10.946 -2.62799
          CHANNELS 3 Zrotation Xrotation Yrotation
          JOINT LeftArm
          {
            OFFSET 10.5924 -0.524583 -2.23212
            CHANNELS 3 Zrotation Xrotation Yrotation
            JOINT LeftForeArm
            {
              OFFSET 27.8415 -8.94286e-05 3.74589e-05
              CHANNELS 3 Zrotation Xrotation Yrotation
              JOINT LeftHand
              {
                OFFSET 28.3288 -1.74407e-05 3.78045e-05
                CHANNELS 3 Zrotation Xrotation Yrotation
                End Site
                {
                  OFFSET 0 0 0
                }
              }
            }
          }
        }
        JOINT RightShoulder
        {
          OFFSET -4.56997 10.9462 -2.62802
          CHANNELS 3 Zrotation Xrotation Yrotation
          JOINT RightArm
          {
            OFFSET -10.5928 -0.524798 -2.2321
            CHANNELS 3 Zrotation Xrotation Yrotation
            JOINT RightForeArm
            {
              OFFSET -27.8415 -3.30792e-05 1.16763e-05
              CHANNELS 3 Zrotation Xrotation Yrotation
              JOINT RightHand
              {
                OFFSET -28.3288 0 5.5816e-05
                CHANNELS 3 Zrotation Xrotation Yrotation
                End Site
                {
                  OFFSET 0 0 0
                }
              }
            }
          }
        }
      }
    }
  }
  JOINT LeftUpLeg
  {
    OFFSET 8.20778 -6.75171 -1.59956
    CHANNELS 3 Zrotation Xrotation Yrotation
    JOINT LeftLeg
    {
      OFFSET 0 -44.3705 0.284643
      CHANNELS 3 Zrotation Xrotation Yrotation
      JOINT LeftFoot
      {
        OFFSET 0 -44.4279 -2.98219
        CHANNELS 3 Zrotation Xrotation Yrotation
        JOINT LeftToeBase
        {
          OFFSET 0 -8.72867 10.7106
          CHANNELS 3 Zrotation Xrotation Yrotation
          End Site
          {
            OFFSET 0 0 0
          }
        }
      }
    }
  }
  JOINT RightUpLeg
  {
    OFFSET -8.2078 -6.75166 -1.59956
    CHANNELS 3 Zrotation Xrotation Yrotation
    JOINT RightLeg
    {
      OFFSET 0 -44.3705 0.286156
      CHANNELS 3 Zrotation Xrotation Yrotation
      JOINT RightFoot
      {
        OFFSET 0 -44.4277 -2.98379
        CHANNELS 3 Zrotation Xrotation Yrotation
        JOINT RightToeBase
        {
          OFFSET 0 -8.72867 10.7106
          CHANNELS 3 Zrotation Xrotation Yrotation
          End Site
          {
            OFFSET 0 0 0
          }
        }
      }
    }
  }
}
MOTION
Frames: 6
Frame Time:	0.0333333
-12.4403  159.612  697.838   4.0481 -5.20075  32.0341  40.1224   41.509 -16.5958  9.24896  26.9705 -2.03561 2.52672 4.17988 -1.0138  -1.39715  -14.0474 -0.918804 9.34432  23.543 1.87084 -4.49577 -10.7412 -9.04965 -64.2472  17.0092 -27.4189   17.773 -15.1305  -36.516  -2.77617  -11.8548 -0.252029 -4.70101 -13.7924  9.01449 33.8156 7.69888 30.4803 -24.5648 -14.3635  26.5361  8.00162  16.9568 -1.01646  21.7328 -42.0315  7.60713  3.30133 0.109111 -4.51113 -10.2789  18.5247 -2.21603  4.31395 -13.9821  6.77152 -49.6587 -14.8059 0.458322 -3.34219  19.4056  1.67194 21.2654 5.72126 -20.543  2.31838 -12.3931 -7.05287 
-11.8784  162.685  705.251 0.902209 -3.10589  32.5311  32.8288  35.3941 -11.7955  12.0673  26.4831 -3.40737 1.33778 5.98499 0.26996 -0.0201346   -13.6374  -0.114503  9.20901  23.1816 0.819687 -2.63743 -9.76244 -6.94114 -68.4254  18.1914 -22.8613  15.9441 -11.4912 -31.4298 -2.13408 -7.77846 -0.21161 -4.18147 -10.8642  7.70678 37.7081 13.3074 25.8056 -22.8976 -11.1326  25.0211   6.43246    16.293 -0.650445  23.6889 -40.5326  6.31288   3.26651 -0.367922  -3.80226 -14.3878  15.2865 0.401047  2.32906 -9.90266  6.36169   -44.32 -15.6506  1.85574 -4.67017  25.2335  3.52318  19.8297  1.87201 -20.1278  1.28577 -10.4675 -6.14881 
-11.4982  166.838  711.831 -0.498786 -0.248435   28.8237  24.5419  30.1032 -6.79829  10.0423  23.6855 -3.05608 -0.338511   7.49418   1.56744 0.797825 -13.4841 0.218498   8.4988  23.0606 0.173074 0.436128 -9.42932 -5.58373 -71.9349  19.4698 -18.5616  14.1063 -8.75301  -27.988  -1.61637  -4.06379 -0.643732 -3.08075 -8.08612  7.07293 42.6652 18.7648 21.7424 -21.1292 -8.57976  23.4347  4.70856  16.4682 -1.06329   27.909 -37.3816  7.51496   3.27309 -0.261357  -3.51934 -16.0067  16.9899  3.98055  0.55873 -4.51159  6.13994 -40.9636  -15.787  3.54946 -4.48907  22.7846  3.95279   16.5474 -0.808948   -21.641 0.764854 -7.69895 -4.67369 
-11.0926  170.654  718.618 -0.764787   1.75866   23.2861 16.7735 24.2999  -3.224 6.73115  19.113 -2.0393 -1.42323  7.19006  2.42602   1.29944  -13.7913 0.0644309   7.33559    22.306 -0.377998  3.07966 -8.90858  -4.8531 -74.9131  20.7764 -13.6931  13.0914 -6.91774 -25.2644 -1.20342 -1.44436 -1.06996 -2.24096  -6.0835  6.53785 47.6059 22.7422 17.7133 -19.3534 -6.36578  21.6862  3.53945  16.5058 -1.35585  31.3978 -33.0065   8.9978  3.41959   2.1198 -3.52175 -16.6145   19.171  6.79335  -0.47848 -0.376893   6.09588 -38.1501 -16.4484  4.55203 -4.30808  20.3276  3.88629   14.5422 -0.785834  -22.4234 0.531378 -5.09647  -3.6137 
-10.8768  174.215  725.329 0.464615  2.17502   15.964   8.72337   19.8348 -0.919829   3.66414   15.1885 -0.908243 -1.13268   6.6384  3.41293  0.370928  -14.5347 -0.655327  6.75233  20.4586 0.156886  6.02515 -8.57442 -5.92328  -76.848  21.2687 -7.86247  13.8052 -6.34892 -23.6889 -1.42339 0.920837 -1.74683 -1.61547 -5.59842  5.74242 53.1495 24.4125 14.0376 -17.4815 -4.05275  19.3185  3.69503  17.2885 -1.95026  32.6241 -29.2517   10.445  3.99991  11.4033 -3.59029 -14.9069  19.0208  6.19436 -0.167552 -0.154716   5.79158 -36.1528 -18.3584  5.42497 -4.3208  20.507 3.79923  14.0476  2.77498 -20.4214 -0.288992  -4.30363  -3.25282 
-11.0633  177.338   731.63   1.81516 -0.467048   10.1166    3.0042   18.2825 -0.508163  2.03493  12.7711 -1.00579 -0.769843   7.60438   3.61466 -1.54592 -15.1559 -1.48873 6.55307 17.8915 1.22992  8.79404  -7.9168 -6.63383 -79.3918  20.0489 -1.79853  14.3235 -6.97661 -22.7009 -2.39703  2.31555 -2.78791 -1.22671 -5.87384  4.71475 58.7116 24.9541 10.5701 -15.5469 -3.02538  17.9808  4.66344  19.2968 -2.91644  32.3532 -26.0752  12.8908  4.84086  25.2442 -2.80574 -10.0147  12.8322 0.677665   1.25586 -0.347214   5.79702 -31.9262  -21.149  5.15363 -5.05904  29.6346  4.67529  11.8564 0.598605 -13.9434 0.020768 0.177306 -3.96534 
